<?xml version="1.0" standalone="no"?>
<!DOCTYPE svg PUBLIC "-//W3C//DTD SVG 20010904//EN"
 "http://www.w3.org/TR/2001/REC-SVG-20010904/DTD/svg10.dtd">
<svg version="1.0" xmlns="http://www.w3.org/2000/svg"
 width="1200.000000pt" height="1200.000000pt" viewBox="0 0 1200.000000 1200.000000"
 preserveAspectRatio="xMidYMid meet">
<metadata>
Created by potrace 1.14, written by Peter Selinger 2001-2017
</metadata>
<g transform="translate(0.000000,1200.000000) scale(0.100000,-0.100000)"
fill="#000000" stroke="none">
<path d="M5828 9657 c-76 -45 -138 -85 -138 -89 0 -13 233 -349 238 -344 7 8
213 449 210 451 -26 24 -116 65 -141 64 -21 0 -79 -28 -169 -82z"/>
<path d="M6161 9578 c-16 -34 -65 -141 -110 -237 -45 -96 -81 -179 -79 -186 6
-23 553 -813 559 -807 11 12 449 820 449 829 0 7 -751 451 -781 461 -5 2 -22
-25 -38 -60z"/>
<path d="M4910 9121 l-715 -418 -3 -99 -2 -99 430 -525 c237 -289 439 -533
448 -542 16 -17 40 31 422 847 223 476 407 865 410 865 3 0 12 -12 21 -26 l16
-26 12 30 c11 26 10 34 -5 57 l-17 27 -15 -28 -14 -27 -19 24 c-10 13 -69 99
-131 191 -62 92 -115 167 -118 167 -3 0 -327 -188 -720 -418z"/>
<path d="M6875 8853 c-88 -162 -193 -356 -233 -430 l-74 -135 -22 21 -23 21
-11 -25 c-10 -21 -9 -30 5 -51 l16 -26 15 27 c7 15 18 23 22 19 5 -5 207 -299
450 -654 243 -355 447 -651 454 -658 10 -10 46 49 174 285 l162 297 -2 579 -3
580 -383 224 c-211 122 -384 223 -385 223 -1 -1 -74 -134 -162 -297z"/>
<path d="M5530 8230 c-222 -473 -406 -860 -409 -860 -3 0 -12 10 -20 22 l-13
22 -15 -28 c-15 -28 -15 -28 -33 -10 -10 11 -205 248 -434 527 l-416 508 0
-913 1 -913 190 -110 c105 -60 195 -110 200 -110 5 0 113 220 238 488 126 269
232 491 235 495 4 3 14 -5 23 -17 l16 -24 14 27 c8 15 17 25 21 22 4 -2 122
-144 262 -315 193 -235 258 -307 266 -298 16 18 834 1524 834 1536 0 10 -521
774 -544 799 -10 10 -91 -155 -416 -848z"/>
<path d="M6527 8213 c-7 -12 -600 -1103 -725 -1333 -58 -107 -107 -197 -110
-200 -2 -3 -12 5 -21 17 l-18 22 -19 -24 -19 -24 -255 314 c-140 173 -257 314
-260 314 -7 1 -462 -970 -457 -975 9 -9 588 -344 595 -344 4 0 90 153 191 340
101 187 187 340 191 340 4 0 13 -7 20 -15 17 -20 27 -19 35 6 4 11 11 19 15
17 5 -2 172 -201 370 -443 199 -242 366 -439 373 -437 7 2 147 82 313 179
l301 175 198 364 c108 200 201 366 205 369 5 3 15 -4 24 -16 l14 -21 14 21 c7
11 16 21 20 21 4 0 55 -71 114 -157 59 -87 109 -160 110 -162 2 -2 17 2 34 9
l30 12 0 417 c0 241 -4 410 -9 401 -5 -8 -68 -123 -140 -255 -73 -131 -134
-242 -137 -245 -3 -3 -14 5 -24 18 l-19 23 -14 -27 -14 -27 -45 64 c-25 35
-228 332 -453 659 -224 327 -411 599 -415 603 -4 5 -10 5 -13 0z"/>
<path d="M7318 6518 c-91 -167 -164 -305 -162 -307 1 -1 125 68 274 154 l270
158 -17 26 c-84 128 -186 271 -192 271 -5 0 -82 -136 -173 -302z"/>
<path d="M5495 6319 c-87 -161 -168 -310 -181 -333 l-23 -41 338 -197 c249
-145 347 -198 371 -198 22 0 83 30 200 98 93 53 168 100 167 104 -4 14 -699
858 -706 858 -4 0 -78 -131 -166 -291z"/>
<path d="M4670 4642 l0 -154 -247 4 -248 4 0 -62 0 -63 218 3 c119 1 217 1
217 -1 0 -2 -12 -27 -26 -56 -81 -161 -220 -319 -383 -432 l-84 -59 29 -24
c16 -13 41 -37 55 -54 l25 -30 80 60 c133 101 267 245 351 378 9 15 12 -40 12
-261 l1 -280 69 0 68 0 -4 290 c-3 238 -1 287 9 271 89 -130 245 -289 346
-350 l62 -38 51 46 c28 25 56 46 63 46 6 0 -26 22 -71 49 -151 89 -229 158
-300 261 -32 48 -93 164 -93 178 0 5 101 7 225 6 l225 -2 0 64 0 64 -95 -6
c-52 -4 -95 -4 -95 0 0 5 10 16 22 26 l22 18 -41 53 c-22 30 -71 87 -108 127
l-67 72 -50 -49 -51 -48 82 -93 c44 -50 81 -96 81 -101 0 -6 -45 -8 -107 -7
l-108 3 3 152 2 151 -70 -1 -70 0 0 -155z"/>
<path d="M7162 4762 c-29 -14 -50 -31 -48 -37 2 -5 25 -58 50 -117 l45 -108
-50 0 c-28 0 -48 4 -45 9 7 11 -169 270 -185 271 -4 0 -29 -18 -57 -41 l-51
-40 60 -81 c96 -129 100 -118 -46 -118 l-125 0 0 -130 0 -130 65 0 64 0 0 71
c0 39 1 73 3 75 9 8 678 14 763 7 l90 -8 3 -72 3 -73 64 0 65 0 0 130 0 130
-166 0 -165 0 20 29 c33 45 102 194 94 201 -15 12 -113 53 -117 49 -2 -2 -26
-49 -54 -104 -28 -55 -60 -113 -71 -129 l-20 -30 -10 25 c-78 189 -106 249
-115 248 -6 0 -35 -12 -64 -27z"/>
<path d="M5450 4666 l0 -65 240 3 c244 3 277 -2 232 -32 -13 -8 -22 -25 -22
-39 0 -29 -63 -127 -144 -225 -65 -78 -199 -193 -301 -258 l-70 -44 54 -54
c63 -62 47 -64 171 24 88 63 189 158 248 232 l42 54 0 -316 0 -316 70 0 70 0
0 428 1 427 32 60 32 60 211 -2 211 -2 0 64 0 65 -538 0 -539 0 0 -64z"/>
<path d="M6110 4338 c-18 -24 -37 -48 -42 -54 -6 -8 19 -35 74 -80 46 -38 137
-117 204 -176 l121 -107 47 48 c25 25 46 51 45 56 -1 16 -393 355 -410 355 -3
0 -21 -19 -39 -42z"/>
<path d="M6890 4253 l0 -58 205 3 c113 2 205 0 204 -5 0 -4 -22 -25 -50 -46
-30 -22 -49 -45 -49 -57 0 -19 -7 -20 -250 -20 l-250 0 0 -55 0 -55 250 0 250
0 0 -106 0 -107 -96 7 -95 7 26 -39 c14 -22 27 -56 28 -77 l2 -38 76 6 c89 6
151 33 174 77 11 21 15 61 15 150 l0 120 260 0 260 0 0 60 c0 43 -3 58 -12 55
-7 -2 -121 -6 -253 -10 l-240 -7 70 56 c39 31 86 61 107 67 39 12 40 19 22
107 l-4 22 -325 0 -325 0 0 -57z"/>
</g>
</svg>
